<!-- icon666.com - MILLIONS vector ICONS FREE --><svg viewBox="0 0 24 24" xmlns="http://www.w3.org/2000/svg"><g id="Layer_2" data-name="Layer 2"><circle cx="17" cy="20.69" r="1.75"></circle><circle cx="9.5" cy="20.69" r="1.75"></circle><path d="m19 16.56h-10.19l-2.67-13.39a2 2 0 0 0 -2-1.61h-1.14a1 1 0 0 0 0 2h1.18l2.35 11.8.33 1.64a2 2 0 0 0 2 1.61h10.14a1 1 0 0 0 0-2z"></path><path d="m22.35 5.28a1.23 1.23 0 0 0 -1-.47h-16.35a.73.73 0 0 0 -.3.06l2.08 10.44h12a2.23 2.23 0 0 0 2.22-1.76l1.6-7.22a1.24 1.24 0 0 0 -.25-1.05zm-6.35 5.53h-4a.75.75 0 0 1 0-1.5h4a.75.75 0 0 1 0 1.5z"></path></g></svg>